<svg xmlns="http://www.w3.org/2000/svg" width="23.25" height="24.232" viewBox="0 0 23.25 24.232"><defs><style>.a{fill:#a3afc7;}</style></defs><g transform="translate(-7.838 0)"><g transform="translate(7.838 0)"><g transform="translate(0 0)"><path class="a" d="M26.634,19.386h.131l6.32-1.375a.622.622,0,0,0,.327-.164L44.121,7.139a4.126,4.126,0,0,0,1.212-2.947,4.257,4.257,0,0,0-1.212-2.98A4.126,4.126,0,0,0,41.174,0a4.028,4.028,0,0,0-2.947,1.244L27.551,11.953a.589.589,0,0,0-.2.295l-1.375,6.32a.72.72,0,0,0,.2.622A.655.655,0,0,0,26.634,19.386ZM41.174,1.31a2.849,2.849,0,0,1,2.849,2.849q0,.016,0,.033a2.751,2.751,0,0,1-.819,2L39.176,2.129A2.816,2.816,0,0,1,41.174,1.31ZM38.259,3.079l4.028,4.028-9.333,9.3-4.028-4ZM28.4,13.721l3.242,3.242-4.159.917Z" transform="translate(-24.833 0)"/><path class="a" d="M30.433,365.717H8.493a.655.655,0,1,0,0,1.31h21.94a.655.655,0,1,0,0-1.31Z" transform="translate(-7.838 -342.794)"/></g></g></g></svg>